<svg xmlns="http://www.w3.org/2000/svg" xmlns:xlink="http://www.w3.org/1999/xlink" width="64" height="59" viewBox="0 0 64 59">
    <defs>
        <path id="a" d="M0 0h54v59H0z"/>
        <path id="c" d="M0 0h30v30H0z"/>
        <path id="e" d="M0 59h64V0H0z"/>
    </defs>
    <g fill="none" fill-rule="evenodd">
        <mask id="b" fill="#fff">
            <use xlink:href="#a"/>
        </mask>
        <path fill="#B9CFFF" d="M0 59V0h54v24.54a20.574 20.574 0 0 0-4.05-.403l-1.35.043V5.364H5.4v48.273h26.638a20.207 20.207 0 0 0 4.15 5.364H0z" mask="url(#b)"/>
        <g transform="translate(34 29)">
            <mask id="d" fill="#fff">
                <use xlink:href="#c"/>
            </mask>
            <path fill="#497EFF" d="M15 24.546c-5.269 0-9.545-4.276-9.545-9.545 0-5.272 4.276-9.546 9.545-9.546 5.267 0 9.546 4.274 9.546 9.546 0 5.269-4.28 9.545-9.546 9.545M15 .001C6.72 0 0 6.72 0 15c0 8.28 6.72 15 15 15 8.278 0 15-6.72 15-15 0-8.28-6.722-15-15-15" mask="url(#d)"/>
        </g>
        <path fill="#497EFF" d="M50.667 37H48v8h8v-2.667h-5.333zM15.807 35.559l-2.727-2.703L11 35.118 15.846 40 24 31.225 21.881 29z"/>
        <mask id="f" fill="#fff">
            <use xlink:href="#e"/>
        </mask>
        <path fill="#B9CFFF" d="M26 37h5v-3h-5zM27 33h11v-3H27z" mask="url(#f)"/>
        <path fill="#497EFF" d="M15.807 21.556l-2.727-2.703L11 21.116 15.846 26 24 17.222 21.881 15z" mask="url(#f)"/>
        <path fill="#B9CFFF" d="M27 25h11v-3H27zM27 19h11v-3H27z" mask="url(#f)"/>
    </g>
</svg>
