<svg xmlns="http://www.w3.org/2000/svg" width="64" height="64" viewBox="0 0 64 64">
    <g fill="none" fill-rule="evenodd">
        <path fill="#B9CFFF" d="M37.598 64c-7.366 0-13.993-3.098-18.774-8.047h8.66c3.004 1.693 6.439 2.682 10.114 2.682 11.646 0 21.122-9.627 21.122-21.459 0-11.831-9.476-21.458-21.122-21.458-3.675 0-7.11.99-10.115 2.682h-8.66c4.782-4.949 11.409-8.047 18.775-8.047C52.18 10.353 64 22.362 64 37.176 64 51.988 52.18 64 37.598 64z"/>
        <path fill="#497EFF" d="M7.53 50.824h18.823v-5.648H7.529zM0 40.47h21.647v-5.646H0zM5.647 29.176h21.647V23.53H5.647zM55.53 12.344l3.755-3.873 3.774 3.892L59.533 16a32.51 32.51 0 0 0-4.004-3.656zM32 7.53V0h10.353v7.53c-3.725-.68-6.709-.666-10.353 0zM42.663 35.364l7.22-10.753-1.244-1.082-10.059 8.276c-1.849-.369-3.84.181-5.187 1.65a5.244 5.244 0 0 0 .436 7.538c2.256 1.968 5.718 1.776 7.733-.422 1.348-1.471 1.685-3.458 1.101-5.207z"/>
    </g>
</svg>
