<svg xmlns="http://www.w3.org/2000/svg" xmlns:xlink="http://www.w3.org/1999/xlink" width="67" height="67" viewBox="0 0 67 67">
    <defs>
        <path id="a" d="M0 .031h56.336v56.338H.001z"/>
        <path id="c" d="M.023.726h43.771V45H.024z"/>
    </defs>
    <g fill="none" fill-rule="evenodd">
        <g>
            <mask id="b" fill="#fff">
                <use xlink:href="#a"/>
            </mask>
            <path fill="#B9CFFF" d="M7.32 36.732a22.366 22.366 0 0 1-1.69-8.531c0-11.473 8.622-20.954 19.724-22.344v8.475c-6.398 1.306-11.229 6.978-11.229 13.759 0 1.5.301 2.922.74 4.281l-7.546 4.36zm18.642 13.875c-6.48-.64-12.158-4.023-15.856-8.982l7.527-4.352a14.19 14.19 0 0 0 6.212 4.152c.05-1.96.408-3.84 1.019-5.605-3-1.286-5.11-4.264-5.11-7.729 0-4.639 3.776-8.413 8.414-8.413 3.398 0 6.311 2.032 7.64 4.934a17.966 17.966 0 0 1 5.615-1.098c-1.604-4.636-5.556-8.185-10.44-9.182V5.857c10.257 1.286 18.381 9.477 19.56 19.765a18.313 18.313 0 0 1 5.683 4.749c.057-.72.11-1.438.11-2.17C56.336 12.669 43.701.03 28.168.03 12.636.03.001 12.668.001 28.2c0 15.53 12.635 28.168 28.167 28.168.805 0 1.6-.054 2.387-.121a18.45 18.45 0 0 1-4.593-5.641z" mask="url(#b)"/>
        </g>
        <g transform="translate(23 22)">
            <mask id="d" fill="#fff">
                <use xlink:href="#c"/>
            </mask>
            <path fill="#497EFF" d="M6.211 19.294c0-6.82 5.414-12.366 12.07-12.366 6.651 0 12.065 5.546 12.065 12.366 0 6.82-5.414 12.37-12.066 12.37-6.655 0-12.069-5.55-12.069-12.37zm37.583 19.603l-9.953-9.947a18.66 18.66 0 0 0 2.693-9.656C36.534 9.057 28.343.726 18.28.726 8.212.726.023 9.056.023 19.294c0 10.238 8.189 18.568 18.257 18.568 3.487 0 6.74-1.018 9.514-2.753l9.894 9.892 6.106-6.104z" mask="url(#d)"/>
        </g>
        <path fill="#497EFF" d="M34 47h3v-5h-3zM39 48h3v-8h-3zM45 48h3V35h-3z"/>
    </g>
</svg>
